<svg width="200" height="200" viewBox="0 0 200 200" fill="none" xmlns="http://www.w3.org/2000/svg">
<rect width="200" height="200" rx="30" fill="#08C26E"/>
<path d="M35 32.4236C35.0359 33.8354 46.779 162.316 46.9227 162.422C46.9945 162.493 58.953 165.811 73.4972 169.764L92.058 174.839C97.2339 176.254 102.695 176.255 107.871 174.841L126.467 169.764C141.011 165.811 153.006 162.493 153.077 162.422C153.185 162.316 164.964 33.7649 165 32.4236C165 32.1059 151.749 32 100 32C48.2514 32 35 32.1059 35 32.4236ZM140.724 60.3082C140.616 61.3318 138.964 79.6862 137.025 101.111C135.528 117.352 134.216 131.382 133.622 137.268C133.423 139.24 132.346 140.537 130.44 141.081C127.423 141.943 122.314 143.359 116.591 144.915L107.948 147.274C102.768 148.687 97.3042 148.685 92.1258 147.267L83.4088 144.88C74.2873 142.374 66.7099 140.185 66.6022 140.009C66.4945 139.832 65.9558 134.538 65.3812 128.29C64.8425 122.007 64.3398 116.466 64.232 115.901V115.901C64.1216 115.413 64.4929 114.948 64.9936 114.948H72.2762H79.2123C79.9758 114.948 80.6271 115.501 80.7514 116.254V116.254C80.8591 116.995 81.1464 119.819 81.3619 122.537C81.5773 125.255 81.8646 127.584 82.0083 127.725C82.116 127.831 86.2099 128.996 91.058 130.267L92.2316 130.576C97.2526 131.9 102.531 131.898 107.552 130.571L108.834 130.232C110.894 129.699 112.81 129.192 114.343 128.78C116.701 128.145 118.08 126.581 118.334 124.152C118.892 118.832 119.751 109.446 119.751 108.312V108.312C119.751 107.688 119.246 107.183 118.622 107.183H91.5608C65.8122 107.183 63.3702 107.147 63.3702 106.618C63.3702 105.735 62.3287 94.158 62.0773 92.4637V92.4637C61.9817 91.6554 62.6121 90.9443 63.4261 90.9423L91.6326 90.8754L114.985 90.7922C118.608 90.7793 121.631 88.0225 121.978 84.416V84.416C122.301 80.9216 122.588 77.3213 122.588 76.3683V76.3683C122.608 75.458 121.876 74.7094 120.965 74.7094H91.5608C66.9613 74.7094 60.4972 74.6035 60.4972 74.2505C60.4972 74.0387 60.174 70.4737 59.779 66.4146C59.384 62.3201 59.0608 58.8963 59.0608 58.7198C59.0608 58.5786 77.4834 58.4727 100 58.4727H139.091C140.075 58.4727 140.838 59.3311 140.724 60.3082V60.3082Z" fill="#F7F7F7"/>
</svg>
