<svg width="200" height="200" viewBox="0 0 200 200" fill="none" xmlns="http://www.w3.org/2000/svg">
<rect width="200" height="200" rx="30" fill="#08C26E"/>
<path d="M45 46.6112C45 31.9143 56.9142 20 71.6112 20H100V73.2225H71.6112C56.9143 73.2225 45 61.3082 45 46.6112V46.6112Z" stroke="#F7F7F7" stroke-width="5"/>
<path d="M155 46.6112C155 31.9143 143.086 20 128.389 20H100V73.2225H128.389C143.086 73.2225 155 61.3082 155 46.6112V46.6112Z" stroke="#F7F7F7" stroke-width="5"/>
<path d="M155 100.499C155 85.802 143.086 73.8877 128.389 73.8877H126.611C111.914 73.8877 100 85.802 100 100.499V100.499C100 115.196 111.914 127.11 126.611 127.11H128.389C143.086 127.11 155 115.196 155 100.499V100.499Z" stroke="#F7F7F7" stroke-width="5"/>
<path d="M45 100.499C45 85.802 56.9142 73.8877 71.6112 73.8877H100V127.11H71.6112C56.9143 127.11 45 115.196 45 100.499V100.499Z" stroke="#F7F7F7" stroke-width="5"/>
<path d="M45 153.389C45 138.692 56.9142 126.778 71.6112 126.778H100V152.5C100 167.688 87.6878 180 72.5 180H71.6112C56.9143 180 45 168.086 45 153.389V153.389Z" stroke="#F7F7F7" stroke-width="5"/>
</svg>
