<svg width="200" height="200" viewBox="0 0 200 200" fill="none" xmlns="http://www.w3.org/2000/svg">
<rect width="200" height="200" rx="30" fill="#08C26E"/>
<path d="M92.3936 15.3333C76.7786 16.7647 61.5291 22.8308 48.5388 32.7821C44.4191 35.9175 35.3823 45.1871 32.3258 49.413C12.4914 76.6427 9.46811 112.052 24.3854 142.008C33.7876 160.82 49.7016 175.542 69.1705 183.448C74.4197 185.561 76.5128 185.527 78.1408 183.278C78.7388 182.46 78.8052 181.779 78.772 173.565C78.7388 168.726 78.6723 164.739 78.6059 164.671C78.5394 164.602 77.7089 164.739 76.7122 164.977C75.6822 165.216 72.6921 165.42 69.7685 165.42C65.2833 165.42 64.2866 165.318 62.1271 164.602C59.1038 163.648 57.8081 162.967 55.5821 161.263C53.1236 159.354 51.5289 157.139 49.2032 152.3C46.9108 147.46 44.5187 144.223 41.8609 142.314C39.2362 140.474 37.5418 138.77 37.5418 137.986C37.5418 135.873 42.326 135.669 46.346 137.645C49.2697 139.077 52.2265 141.939 54.7183 145.722C60.1337 154.038 67.2767 156.457 76.8118 153.288L79.0046 152.572L79.5361 150.187C80.2006 147.222 81.6624 144.052 83.2239 142.144C83.8884 141.36 84.3203 140.713 84.1542 140.713C83.1907 140.678 77.4431 139.656 75.0842 139.077C66.7784 137.032 60.6985 133.794 56.014 128.887C48.871 121.457 45.4822 110.688 45.9473 96.6134C46.1135 90.7858 46.7447 87.7527 48.6384 83.3223C49.4358 81.5161 52.2598 76.8813 53.8213 74.9387L54.4857 74.0867L53.7548 71.8715C53.1568 70.0312 53.0571 68.8044 53.0239 64.5444C52.9907 59.3302 53.19 58.0011 54.5854 53.3322L55.3163 51.0148L58.3064 51.1852C63.0906 51.4578 68.1073 53.4344 75.35 57.9329L78.8052 60.0459L81.8285 59.3302C88.2407 57.7625 91.4301 57.4217 100.002 57.4217C108.507 57.4217 111.331 57.7285 118.275 59.3302L121.431 60.0459L123.889 58.4441C130.634 53.9797 136.813 51.4578 141.697 51.1852L144.687 51.0148L145.418 53.3322C147.345 59.4665 147.677 67.1685 146.215 71.8715L145.518 74.0867L146.182 74.9387C147.744 76.8813 150.568 81.5161 151.365 83.3223C153.259 87.6845 153.89 90.7858 154.056 96.5793C154.787 118.288 146.348 132.261 129.205 137.816C126.447 138.702 121.663 139.826 118.939 140.201C118.108 140.304 117.045 140.474 116.514 140.576L115.617 140.781L116.813 142.178C118.275 143.95 119.736 147.051 120.467 149.948C120.932 151.754 121.065 154.685 121.231 167.533L121.431 182.971L122.328 183.857C122.992 184.573 123.624 184.812 124.986 184.948C126.514 185.05 127.311 184.88 130.733 183.483C150.634 175.406 166.548 160.547 176.05 141.156C188.077 116.55 187.977 87.2415 175.784 62.7382C171.365 53.9115 167.213 48.118 159.97 40.6886C152.727 33.2592 147.079 28.9993 138.474 24.4667C124.388 17.1055 108.208 13.902 92.3936 15.3333Z" fill="#F7F7F7"/>
<path d="M45.1499 139.043C44.7845 139.315 44.8177 139.486 45.4821 140.065C46.4124 140.849 47.0104 140.747 47.0104 139.861C47.0104 139.145 45.8144 138.6 45.1499 139.043Z" fill="#F7F7F7"/>
<path d="M48.7382 141.974C47.9741 142.757 49.3362 144.632 50.3661 144.223C51.0638 143.95 50.9309 142.86 50.1004 142.28C49.2698 141.667 49.0372 141.633 48.7382 141.974Z" fill="#F7F7F7"/>
<path d="M52.0606 146.404C51.6287 146.847 51.828 148.108 52.426 148.653C53.1569 149.335 54.1536 149.403 54.1869 148.789C54.353 147.154 52.8912 145.518 52.0606 146.404Z" fill="#F7F7F7"/>
<path d="M56.047 151.516C55.5154 152.027 55.8476 153.322 56.645 153.867C57.6749 154.549 58.6052 154.379 58.7381 153.424C58.9374 152.129 56.8443 150.664 56.047 151.516Z" fill="#F7F7F7"/>
<path d="M61.5624 155.571C61.2633 156.355 61.8281 157.139 62.9245 157.514C63.9544 157.854 64.785 157.343 64.785 156.355C64.785 155.128 61.9943 154.481 61.5624 155.571Z" fill="#F7F7F7"/>
<path d="M75.2834 155.81C74.486 156.423 74.7186 157.548 75.7153 157.684C77.5426 157.957 78.8715 156.866 78.0409 155.844C77.5426 155.231 76.0475 155.231 75.2834 155.81Z" fill="#F7F7F7"/>
<path d="M68.7383 156.73L67.9409 157.412L68.7383 158.093C69.6021 158.843 70.1669 158.945 71.1304 158.434C72.3596 157.752 71.5623 156.048 70.0008 156.048C69.735 156.048 69.1702 156.355 68.7383 156.73Z" fill="#F7F7F7"/>
</svg>
