<svg width="200" height="200" viewBox="0 0 200 200" fill="none" xmlns="http://www.w3.org/2000/svg">
<rect width="200" height="200" rx="30" fill="#08C26E"/>
<path d="M35 34.2083C35 35.8787 43.9917 159.946 44.1 160.053C44.4611 160.266 99.6389 178 100 178C100.397 178 155.611 160.266 155.9 160.053C156.008 159.946 165 35.8787 165 34.2083V33H100H35V34.2083ZM142.106 55.4608C141.997 56.3137 141.744 59.6899 141.528 63.0306C141.311 66.3358 141.058 69.6054 140.95 70.2096L140.769 71.3824H108.847H76.8889V72.6262C76.8889 74.0833 77.9 88.1924 78.1889 90.8223L78.3694 92.7059H108.667C126.975 92.7059 139.036 92.848 139.181 93.0257C139.289 93.2034 138.567 104.54 137.556 118.223C136.581 131.87 135.75 143.349 135.75 143.74C135.75 144.309 133.186 145.268 117.875 150.279L100 156.143L82.2694 150.315C72.5194 147.116 64.5028 144.344 64.4306 144.096C64.2861 143.74 63.1667 128.814 63.1667 127.428C63.1667 126.859 63.7444 126.824 71.9417 126.895L80.6806 127.001L80.8611 129.311L81.0417 131.621L90.5389 134.749L100 137.912L109.497 134.749L118.958 131.621L119.572 123.092C119.897 118.401 120.222 113.567 120.331 112.324L120.511 110.12H91.1167H61.7222V109.303C61.7222 108.165 58.1833 58.0551 57.9306 55.8162L57.75 53.9681H100.036H142.286L142.106 55.4608Z" fill="#F7F7F7"/>
</svg>
