<svg width="200" height="200" viewBox="0 0 200 200" fill="none" xmlns="http://www.w3.org/2000/svg">
<rect width="200" height="200" rx="30" fill="#08C26E"/>
<path d="M140.737 72.2707C130.45 73.7748 121.988 79.7908 117.846 88.486C115.709 92.951 115.13 96.053 115.13 102.116C115.13 110.482 116.733 115.981 120.919 121.668C125.061 127.355 131.34 131.68 143.676 137.32C155.389 142.631 158.283 144.511 160.109 147.754C161.49 150.198 161.935 153.77 161.178 156.167C160.332 158.94 157.482 161.854 154.587 163.029C149.555 165.05 141.45 164.627 136.774 162.089C133.79 160.491 130.45 157.342 128.134 154.005L125.863 150.762L123.591 152.172C122.344 152.924 118.47 155.321 114.996 157.436C111.478 159.551 108.628 161.431 108.628 161.619C108.628 161.76 109.608 163.499 110.81 165.473C118.915 178.539 133.166 185.354 150.267 184.414C157.037 184.085 162.069 182.769 167.368 180.09C170.709 178.351 172.178 177.27 174.939 174.356C180.64 168.34 183 161.995 183 152.924C182.955 141.503 179.304 133.56 171.065 127.026C166.611 123.501 161.223 120.493 151.826 116.216C139.089 110.388 136.239 107.709 136.239 101.411C136.239 95.536 140.336 91.823 146.749 91.87C151.96 91.917 155.701 94.314 159.041 99.6251L160.154 101.411L165.899 97.5101C169.061 95.348 172.802 92.81 174.227 91.87L176.765 90.131L176.097 88.768C174.984 86.4649 171.065 81.5299 168.615 79.4148C165.587 76.7358 160.956 74.2918 156.903 73.2107C153.028 72.1297 144.79 71.6597 140.737 72.2707Z" fill="#F7F7F7"/>
<path d="M75.5837 114.196L75.4501 155.227L74.4258 157.859C73.8914 159.316 73.0007 160.914 72.4217 161.431C68.6809 165.097 61.1101 165.285 56.8348 161.854C55.8105 161.055 53.8956 158.658 52.5595 156.543L50.1547 152.736L41.6487 158.141C36.9726 161.149 33.0536 163.64 33.009 163.734C32.92 163.781 33.4989 165.191 34.3005 166.836C36.5718 171.395 42.8956 177.787 47.4826 180.325C53.3611 183.474 56.8793 184.273 64.9845 184.273C72.7335 184.273 76.6525 183.474 81.7739 180.795C89.9682 176.612 95.0896 168.387 96.5593 157.154C96.871 154.804 97.0491 139.576 97.0491 113.35V73.211H86.3609H75.7173L75.5837 114.196Z" fill="#F7F7F7"/>
</svg>
