<svg width="100" height="100" viewBox="0 0 100 100" fill="none" xmlns="http://www.w3.org/2000/svg">
<path d="M89.5728 19.4394C83.5282 11.6121 75.2981 5.75313 65.9235 2.60349C56.5488 -0.546142 46.4507 -0.844958 36.9062 1.74484C27.3617 4.33463 18.7996 9.6967 12.3027 17.1529C5.80588 24.6091 1.66609 33.8245 0.406949 43.6336C-0.852194 53.4427 0.825867 63.4049 5.2289 72.2603C9.63194 81.1156 16.5622 88.4664 25.1431 93.3828C33.7241 98.2993 43.5703 100.561 53.4365 99.8808C63.3027 99.201 72.7457 95.6107 80.5713 89.5638C102.415 72.6827 106.446 41.2908 89.5712 19.4394H89.5728Z" fill="#FF6C37"/>
<path d="M66.8697 31.8687L45.7872 53.1185L39.8295 46.9936C60.5792 26.2437 62.6619 28.1187 66.8713 31.8687H66.8697Z" fill="white"/>
<path d="M45.7866 53.71C45.5999 53.7054 45.4216 53.6313 45.2866 53.5022L39.2866 47.5022C39.1516 47.3624 39.076 47.1756 39.076 46.9811C39.076 46.7867 39.1516 46.5999 39.2866 46.4601C59.7443 26.0024 62.5364 26.9602 67.3692 31.3352C67.4501 31.3999 67.5149 31.4826 67.5582 31.5768C67.6016 31.6709 67.6225 31.7738 67.6192 31.8774C67.6505 32.0805 67.5723 32.2883 67.4114 32.4196L46.3288 53.5037C46.1809 53.6393 45.9871 53.7136 45.7866 53.7116V53.71ZM40.8694 47.0022L45.7866 51.9194L65.7864 31.9196C65.0959 31.0542 64.1105 30.4737 63.0189 30.2892C61.9272 30.1047 60.8059 30.3292 59.8693 30.9196C56.2443 32.5446 50.4115 37.5023 40.8694 47.0022V47.0022Z" fill="#FF6C37"/>
<path d="M51.8293 58.9896L46.0793 53.1147L67.1621 32.2806C72.8292 37.8227 64.4121 47.0726 51.8293 58.9881V58.9896Z" fill="white"/>
<path d="M51.8173 59.7682C51.6328 59.7535 51.4578 59.6808 51.3173 59.5604L45.4423 53.8105C45.3542 53.5968 45.3542 53.3569 45.4423 53.1433C45.3798 52.9679 45.3798 52.7764 45.4423 52.6011L66.5249 31.5185C66.6716 31.3808 66.8652 31.3041 67.0663 31.3041C67.2675 31.3041 67.4611 31.3808 67.6077 31.5185C68.2905 32.1469 68.8299 32.915 69.1893 33.7705C69.5487 34.626 69.7197 35.5488 69.6905 36.4763C69.6905 42.1012 63.2734 49.184 52.3579 59.5182C52.212 59.6625 52.0201 59.751 51.8157 59.7682H51.8173ZM47.1501 53.1433L51.8579 57.8495C60.1906 49.9746 68.1499 41.8497 68.1906 36.3497C68.2359 35.1838 67.8504 34.0419 67.1078 33.142L47.1501 53.1433Z" fill="#FF6C37"/>
<path d="M39.9942 47.0983L44.1613 51.2654C44.1879 51.2889 44.2092 51.3178 44.2238 51.3501C44.2384 51.3824 44.246 51.4175 44.246 51.4529C44.246 51.4884 44.2384 51.5235 44.2238 51.5558C44.2092 51.5881 44.1879 51.617 44.1613 51.6404L35.3692 53.5154C35.1917 53.5537 35.0066 53.533 34.842 53.4563C34.6774 53.3797 34.5424 53.2514 34.4574 53.0909C34.3725 52.9304 34.3424 52.7466 34.3716 52.5674C34.4008 52.3882 34.4877 52.2235 34.6192 52.0983L39.7442 47.0155C39.7442 47.0155 39.9114 47.0155 39.9942 47.0983Z" fill="white"/>
<path d="M35.1613 54.3895C34.8836 54.386 34.6113 54.3114 34.3706 54.1727C34.1299 54.034 33.9287 53.8359 33.7864 53.5974C33.6262 53.2952 33.568 52.9492 33.6207 52.6113C33.6734 52.2733 33.834 51.9615 34.0785 51.7224L39.1613 46.5974C39.3446 46.4336 39.5818 46.343 39.8277 46.343C40.0735 46.343 40.3108 46.4336 40.4941 46.5974L44.6612 50.7646C44.9081 50.9989 45.005 51.3536 44.9112 51.6818C44.8175 52.0099 44.5425 52.2708 44.2034 52.3489L35.4113 54.2239L35.1613 54.3895ZM39.8285 48.0568L35.1207 52.7646L42.9128 51.0974L39.8285 48.0568Z" fill="#FF6C37"/>
<path d="M78.067 20.1717C75.0514 17.2624 70.3138 17.1405 67.1513 19.8858C63.9888 22.6311 63.4481 27.3435 65.9107 30.7341C68.3732 34.1247 73.0154 35.0747 76.6092 32.9216L70.942 27.2545L78.067 20.1717Z" fill="white"/>
<path d="M72.4512 34.8372C70.7186 34.815 69.0309 34.2834 67.5983 33.3087C66.1657 32.3341 65.0517 30.9594 64.3949 29.356C63.7386 27.7538 63.5664 25.9943 63.8997 24.2953C64.233 22.5963 65.057 21.0322 66.2699 19.7967C67.9381 18.1591 70.1823 17.2417 72.5199 17.2417C74.8575 17.2417 77.1017 18.1591 78.7699 19.7967C78.9293 19.931 79.0199 20.1295 79.0199 20.3388C79.0195 20.4419 78.997 20.5436 78.9539 20.6371C78.9107 20.7307 78.848 20.8138 78.7699 20.881L72.0199 27.256L77.1449 32.2981C77.2279 32.3774 77.2903 32.4759 77.3265 32.5848C77.3628 32.6938 77.3718 32.8099 77.3527 32.9231C77.3404 33.0324 77.3042 33.1376 77.2467 33.2313C77.1891 33.325 77.1117 33.4049 77.0199 33.4653C75.6431 34.3259 74.0603 34.8008 72.4371 34.8403L72.4512 34.8372ZM72.4512 18.6701C69.4824 18.6857 66.8262 20.4717 65.7121 23.2013C64.598 25.931 65.2043 29.0732 67.2855 31.17C68.3207 32.2112 69.6463 32.9156 71.0885 33.1907C72.5308 33.4659 74.0225 33.2991 75.3684 32.7122L70.4512 27.795C70.373 27.7325 70.3099 27.6533 70.2665 27.5631C70.2232 27.4728 70.2006 27.374 70.2006 27.274C70.2006 27.1739 70.2232 27.0751 70.2665 26.9849C70.3099 26.8947 70.373 26.8154 70.4512 26.7529L76.9512 20.2107C75.6591 19.2205 74.0791 18.679 72.4512 18.6685V18.6701Z" fill="#FF6C37"/>
<path d="M78.204 20.2579L71.0791 27.3406L76.7462 33.0078C77.3165 32.6803 77.8476 32.2887 78.3289 31.8406C79.8142 30.2707 80.6314 28.1851 80.6081 26.024C80.5848 23.8629 79.7228 21.7954 78.204 20.2579V20.2579Z" fill="white"/>
<path d="M76.618 33.6581C76.5244 33.6631 76.4309 33.6471 76.3443 33.6111C76.2578 33.5751 76.1804 33.5202 76.118 33.4503L70.4508 27.7831C70.3727 27.7206 70.3096 27.6413 70.2662 27.5511C70.2228 27.4609 70.2003 27.3621 70.2003 27.262C70.2003 27.1619 70.2228 27.0631 70.2662 26.9729C70.3096 26.8827 70.3727 26.8034 70.4508 26.7409L77.5336 19.7832C77.602 19.68 77.6949 19.5954 77.8039 19.5369C77.913 19.4784 78.0348 19.4478 78.1586 19.4478C78.2824 19.4478 78.4042 19.4784 78.5133 19.5369C78.6223 19.5954 78.7152 19.68 78.7836 19.7832C79.6151 20.5979 80.2757 21.5703 80.7266 22.6435C81.1776 23.7167 81.4098 24.869 81.4098 26.0331C81.4098 27.1972 81.1776 28.3496 80.7266 29.4228C80.2757 30.496 79.6151 31.4684 78.7836 32.2831C78.2931 32.8033 77.7319 33.252 77.1164 33.6159C76.9615 33.694 76.7823 33.7091 76.6164 33.6581H76.618ZM72.0352 27.2425L76.743 31.9503C77.0668 31.7233 77.3734 31.4726 77.6602 31.2003C79.0441 29.8201 79.8236 27.947 79.8273 25.9925C79.8305 24.2434 79.193 22.5536 78.0352 21.2425L72.0352 27.2425Z" fill="#FF6C37"/>
<path d="M67.7317 32.715C67.1674 32.185 66.4223 31.89 65.6481 31.89C64.874 31.89 64.1289 32.185 63.5646 32.715L44.6913 51.5461L47.8163 54.7132L67.7739 37.2134C68.0783 36.9217 68.3197 36.5708 68.4833 36.1822C68.6469 35.7937 68.7293 35.3758 68.7254 34.9543C68.7214 34.5327 68.6312 34.1164 68.4603 33.7311C68.2894 33.3457 68.0415 32.9993 67.7317 32.7134V32.715Z" fill="white"/>
<path d="M47.6622 55.4827C47.4754 55.4781 47.2971 55.404 47.1622 55.2749L43.995 52.1077C43.8599 51.9679 43.7844 51.781 43.7844 51.5866C43.7844 51.3922 43.8599 51.2054 43.995 51.0655L62.8699 32.2735C63.4135 31.7305 64.1078 31.3634 64.8626 31.2197C65.6174 31.0761 66.398 31.1625 67.1031 31.4678C67.8082 31.7731 68.4053 32.2832 68.817 32.932C69.2287 33.5808 69.436 34.3383 69.412 35.1063C69.3903 35.6276 69.2649 36.1393 69.043 36.6115C68.8212 37.0837 68.5073 37.5069 68.1198 37.8563L48.1622 55.3561C48.017 55.4588 47.8386 55.5035 47.6622 55.4811V55.4827ZM45.4544 51.564L47.5372 53.6889L67.1198 36.6469C67.6042 36.2251 67.8932 35.6219 67.912 34.9798C67.9307 34.3376 67.6776 33.7095 67.2042 33.272C66.767 32.8366 66.1751 32.5921 65.5581 32.5921C64.9411 32.5921 64.3492 32.8366 63.912 33.272L45.4544 51.564Z" fill="#FF6C37"/>
<path d="M30.0788 73.0268C30.0255 73.0993 29.9967 73.1869 29.9967 73.2768C29.9967 73.3668 30.0255 73.4544 30.0788 73.5268L30.9116 77.1518C30.945 77.3651 30.9133 77.5835 30.8208 77.7786C30.7283 77.9737 30.5792 78.1364 30.3929 78.2455C30.2072 78.3541 29.9919 78.401 29.778 78.3794C29.564 78.3577 29.3624 78.2688 29.2023 78.1252L23.4945 72.6253L41.2865 54.6926H47.4536L51.6207 58.8598C45.1203 64.5432 37.8724 69.3098 30.0788 73.0268V73.0268Z" fill="white"/>
<path d="M29.698 79.1333C29.2262 79.1239 28.7605 78.9302 28.448 78.5911L22.9903 73.1334C22.9121 73.0709 22.849 72.9916 22.8056 72.9014C22.7623 72.8112 22.7397 72.7124 22.7397 72.6123C22.7397 72.5122 22.7623 72.4134 22.8056 72.3232C22.849 72.233 22.9121 72.1537 22.9903 72.0912L40.9058 54.1335C41.0061 54.0269 41.1372 53.9542 41.2808 53.9257H47.4885C47.6503 53.8685 47.8268 53.8685 47.9885 53.9257L52.1557 58.0929C52.2349 58.1659 52.2952 58.2571 52.3314 58.3586C52.3676 58.4602 52.3786 58.569 52.3635 58.6757C52.3664 58.7792 52.3454 58.882 52.302 58.9761C52.2587 59.0701 52.1941 59.1529 52.1135 59.2179L51.7807 59.51C45.254 64.9511 38.0736 69.556 30.4058 73.2177L31.198 76.5927C31.2593 76.8531 31.2616 77.1238 31.2049 77.3852C31.1482 77.6465 31.0338 77.892 30.8702 78.1035C30.7065 78.3151 30.4977 78.4874 30.259 78.608C30.0203 78.7286 29.7576 78.7943 29.4902 78.8005L29.698 79.1333ZM24.6153 72.5912L29.5309 77.5489C29.5767 77.5898 29.6359 77.6124 29.6973 77.6124C29.7586 77.6124 29.8179 77.5898 29.8637 77.5489C29.8943 77.5064 29.9108 77.4553 29.9108 77.4029C29.9108 77.3504 29.8943 77.2993 29.8637 77.2568L29.0309 73.6318C28.9652 73.3716 28.9916 73.0968 29.1055 72.8539C29.2194 72.6109 29.4139 72.4149 29.6559 72.299C37.1174 68.6861 44.1128 64.1808 50.4885 58.8819L47.0713 55.4648H41.4886L24.6153 72.5912Z" fill="#FF6C37"/>
<path d="M19.2052 76.8771L23.3724 72.71L29.7895 79.1271L19.5818 78.4193C19.4065 78.4055 19.2401 78.3368 19.1062 78.2228C18.9723 78.1089 18.8779 77.9556 18.8363 77.7848C18.7947 77.614 18.8082 77.4344 18.8747 77.2717C18.9412 77.1089 19.0574 76.9714 19.2068 76.8787L19.2052 76.8771Z" fill="white"/>
<path d="M29.8985 79.768L19.7314 79.0602C19.1283 79.0039 18.6096 78.5915 18.3971 78.0399C18.1846 77.4883 18.3142 76.8336 18.7314 76.393L22.8986 72.2259C23.0384 72.0908 23.2252 72.0153 23.4197 72.0153C23.6141 72.0153 23.8009 72.0908 23.9407 72.2259L30.3157 78.6008C30.4039 78.7217 30.4515 78.8675 30.4515 79.0172C30.4515 79.1669 30.4039 79.3127 30.3157 79.4336C30.2193 79.5895 30.0719 79.7071 29.8985 79.7664V79.768ZM19.7314 77.4352L28.0641 77.9774L23.4814 73.6852L19.7314 77.4352Z" fill="#FF6C37"/>
<path d="M48.0302 55.1773L39.6132 56.4695L44.4881 51.6367L48.0302 55.1773Z" fill="white"/>
<path d="M39.6078 57.2612C39.4679 57.2649 39.3301 57.2273 39.2114 57.1531C39.0928 57.0789 38.9986 56.9714 38.9406 56.844C38.8519 56.7233 38.8041 56.5774 38.8041 56.4276C38.8041 56.2778 38.8519 56.1319 38.9406 56.0112L43.7733 51.1362C43.92 50.9985 44.1136 50.9218 44.3147 50.9218C44.5159 50.9218 44.7095 50.9985 44.8561 51.1362L48.3998 54.6768C48.4706 54.7891 48.5082 54.9191 48.5082 55.0518C48.5082 55.1846 48.4706 55.3146 48.3998 55.4268C48.3651 55.5637 48.2916 55.6876 48.1882 55.7838C48.0849 55.8799 47.956 55.9442 47.817 55.969L39.4844 57.2612H39.6078ZM44.4827 52.719L41.775 55.4268L46.442 54.719L44.4827 52.719Z" fill="#FF6C37"/>
<path d="M48.0364 55.1673L42.1615 55.9173C42.0043 55.953 41.8397 55.9371 41.6923 55.8719C41.5448 55.8067 41.4223 55.6958 41.3428 55.5555C41.2634 55.4152 41.2313 55.253 41.2513 55.0931C41.2712 54.9331 41.3422 54.7838 41.4537 54.6673L44.4958 51.6251L48.0364 55.1673Z" fill="white"/>
<path d="M41.9871 56.7216C41.7148 56.7189 41.448 56.6443 41.2139 56.5051C40.9798 56.366 40.7867 56.1673 40.6543 55.9294C40.4952 55.6442 40.4335 55.3148 40.4786 54.9913C40.5237 54.6679 40.6732 54.368 40.9043 54.1372L43.9465 51.095C44.0931 50.9573 44.2867 50.8806 44.4879 50.8806C44.689 50.8806 44.8827 50.9573 45.0293 51.095L48.5714 54.6372C48.6768 54.737 48.7509 54.8652 48.7848 55.0063C48.8187 55.1474 48.811 55.2953 48.7625 55.4321C48.7141 55.5689 48.627 55.6887 48.5118 55.7769C48.3966 55.8652 48.2583 55.9181 48.1136 55.9294L42.2808 56.6794L41.9871 56.7216ZM41.9871 55.1794L46.4042 54.6372L44.4465 52.6794L41.9465 55.1794H41.9871ZM78.2368 25.0546C78.1583 24.9231 78.0343 24.8251 77.8882 24.779C77.7422 24.7329 77.5843 24.742 77.4446 24.8046C77.3756 24.8396 77.3144 24.888 77.2645 24.9471C77.2145 25.0061 77.177 25.0746 77.154 25.1484C77.1076 25.2973 77.1222 25.4586 77.1946 25.5968C77.4868 26.2109 77.4055 26.9374 76.9868 27.4718C76.9348 27.5233 76.894 27.585 76.8671 27.653C76.8402 27.7211 76.8278 27.794 76.8305 27.8671C76.8321 28.0136 76.8877 28.1544 76.9868 28.2624C77.0937 28.3046 77.2127 28.3046 77.3196 28.2624C77.4166 28.2868 77.5185 28.2841 77.6141 28.2546C77.7097 28.2252 77.7953 28.17 77.8618 28.0952C78.2049 27.6752 78.4222 27.1666 78.4885 26.6283C78.5549 26.09 78.4676 25.5439 78.2368 25.0531V25.0546Z" fill="#FF6C37"/>
</svg>
