<svg width="200" height="200" viewBox="0 0 200 200" fill="none" xmlns="http://www.w3.org/2000/svg">
<rect width="200" height="200" rx="30" fill="#08C26E"/>
<path d="M180 100.016C180 89.6017 166.726 79.7322 146.376 73.6118C151.072 53.2319 148.985 37.0176 139.788 31.8265C137.668 30.6088 135.19 30.032 132.483 30.032V37.1778C133.983 37.1778 135.19 37.4662 136.201 38.011C140.636 40.5104 142.56 50.0275 141.06 62.2682C140.701 65.2804 140.114 68.4527 139.397 71.6892C133.004 70.1511 126.025 68.9654 118.687 68.1964C114.285 62.2682 109.719 56.8849 105.12 52.1744C115.752 42.4651 125.732 37.1458 132.515 37.1458V30C123.547 30 111.806 36.2806 99.9348 47.1756C88.0636 36.3447 76.3229 30.1282 67.3543 30.1282V37.274C74.1052 37.274 84.1174 42.5612 94.7493 52.2065C90.1835 56.9169 85.6176 62.2682 81.2801 68.1964C73.9095 68.9654 66.9303 70.1511 60.5381 71.7212C59.788 68.5168 59.2336 65.4086 58.8422 62.4285C57.3094 50.1877 59.201 40.6706 63.6038 38.1392C64.5821 37.5624 65.8541 37.306 67.3543 37.306V30.1602C64.6148 30.1602 62.1362 30.737 59.9837 31.9547C50.8194 37.1458 48.7648 53.328 53.4937 73.6438C33.2083 79.7963 20 89.6338 20 100.016C20 110.43 33.2735 120.3 53.6241 126.42C48.9278 146.8 51.0151 163.014 60.212 168.206C62.3318 169.423 64.8104 170 67.5499 170C76.5186 170 88.2593 163.719 100.13 152.824C112.002 163.655 123.742 169.872 132.711 169.872C135.45 169.872 137.929 169.295 140.082 168.077C149.246 162.886 151.3 146.704 146.572 126.388C166.792 120.268 180 110.398 180 100.016ZM137.538 78.6427C136.331 82.7764 134.831 87.0382 133.135 91.3001C131.798 88.7365 130.395 86.173 128.863 83.6095C127.362 81.046 125.764 78.5466 124.166 76.1112C128.797 76.7842 133.265 77.6173 137.538 78.6427ZM122.601 112.77C120.057 117.095 117.448 121.197 114.741 125.01C109.882 125.427 104.957 125.651 100 125.651C95.0754 125.651 90.1508 125.427 85.3241 125.042C82.6172 121.229 79.9755 117.16 77.4317 112.866C74.9531 108.668 72.7028 104.406 70.6482 100.112C72.6702 95.8183 74.9531 91.5244 77.3991 87.3266C79.9429 83.0007 82.552 78.8991 85.2589 75.0858C90.1182 74.6693 95.0428 74.4449 100 74.4449C104.925 74.4449 109.849 74.6693 114.676 75.0538C117.383 78.867 120.024 82.9366 122.568 87.2305C125.047 91.4282 127.297 95.6901 129.352 99.984C127.297 104.278 125.047 108.572 122.601 112.77ZM133.135 108.604C134.896 112.898 136.396 117.192 137.636 121.357C133.363 122.383 128.863 123.248 124.199 123.921C125.797 121.453 127.395 118.922 128.895 116.326C130.395 113.763 131.798 111.167 133.135 108.604ZM100.065 142.795C97.0322 139.718 93.9992 136.29 90.9988 132.541C93.934 132.669 96.9344 132.765 99.9674 132.765C103.033 132.765 106.066 132.701 109.034 132.541C106.099 136.29 103.066 139.718 100.065 142.795ZM75.8011 123.921C71.17 123.248 66.702 122.415 62.4297 121.389C63.6364 117.256 65.1366 112.994 66.8324 108.732C68.1696 111.295 69.572 113.859 71.1048 116.423C72.6376 118.986 74.203 121.485 75.8011 123.921ZM99.9022 57.2374C102.935 60.3136 105.968 63.7423 108.969 67.4914C106.033 67.3632 103.033 67.2671 100 67.2671C96.9344 67.2671 93.9014 67.3312 90.9336 67.4914C93.8687 63.7423 96.9018 60.3136 99.9022 57.2374ZM75.7685 76.1112C74.1704 78.5786 72.5724 81.1101 71.0722 83.7057C69.572 86.2692 68.1696 88.8327 66.8324 91.3962C65.0713 87.1023 63.5711 82.8084 62.3318 78.6427C66.6042 77.6493 71.1048 76.7842 75.7685 76.1112ZM46.2536 116.23C34.7085 111.392 27.2401 105.047 27.2401 100.016C27.2401 94.9851 34.7085 88.6084 46.2536 83.8018C49.0583 82.6162 52.1239 81.5587 55.2874 80.5653C57.1464 86.846 59.5923 93.3829 62.6254 100.08C59.625 106.745 57.2116 113.25 55.3852 119.499C52.1565 118.505 49.0909 117.416 46.2536 116.23ZM63.7994 162.021C59.364 159.522 57.4399 150.005 58.9401 137.764C59.2988 134.752 59.8859 131.579 60.6033 128.343C66.9955 129.881 73.9747 131.067 81.3127 131.836C85.7155 137.764 90.2813 143.147 94.8797 147.858C84.2479 157.567 74.2682 162.886 67.4847 162.886C66.0171 162.854 64.7778 162.566 63.7994 162.021ZM141.158 137.604C142.691 149.844 140.799 159.361 136.396 161.893C135.418 162.47 134.146 162.726 132.646 162.726C125.895 162.726 115.883 157.439 105.251 147.794C109.817 143.083 114.382 137.732 118.72 131.804C126.091 131.035 133.07 129.849 139.462 128.279C140.212 131.515 140.799 134.623 141.158 137.604ZM153.714 116.23C150.909 117.416 147.843 118.473 144.68 119.467C142.821 113.186 140.375 106.649 137.342 99.9519C140.342 93.2868 142.756 86.7819 144.582 80.5333C147.811 81.5267 150.876 82.6162 153.746 83.8018C165.291 88.6404 172.76 94.9851 172.76 100.016C172.727 105.047 165.259 111.424 153.714 116.23Z" fill="#F7F7F7"/>
<path d="M99.9706 114.66C108.202 114.66 114.875 108.103 114.875 100.015C114.875 91.9277 108.202 85.3713 99.9706 85.3713C91.7392 85.3713 85.0664 91.9277 85.0664 100.015C85.0664 108.103 91.7392 114.66 99.9706 114.66Z" fill="#F7F7F7"/>
</svg>
