<svg width="200" height="200" viewBox="0 0 200 200" fill="none" xmlns="http://www.w3.org/2000/svg">
<rect width="200" height="200" rx="30" fill="#08C26E"/>
<path d="M91.9185 15.2132C65.3214 17.9747 42.0157 32.4472 27.8528 55.0045C11.6618 80.7556 10.6977 114.126 25.3593 140.775C29.2491 147.862 33.7706 153.917 39.6552 159.839C46.637 166.926 53.652 171.983 62.6617 176.408C71.3058 180.633 79.5841 183.161 89.5913 184.592C93.5476 185.158 106.613 185.124 110.703 184.559C131.349 181.698 148.87 172.582 162.933 157.344C174.569 144.701 181.983 128.632 184.576 110.499C185.141 106.573 185.141 93.4649 184.576 89.539C182.615 75.6986 178.226 63.9542 170.945 52.975C167.886 48.3171 164.795 44.5243 160.473 40.1659C147.207 26.7247 130.784 18.4405 111.866 15.6458C107.777 15.0469 95.9746 14.7807 91.9185 15.2132ZM129.021 35.8075C140.159 36.9387 148.537 41.2638 152.061 47.7848C154.854 52.9084 154.654 60.4941 151.562 67.9133C148.171 76.0645 139.361 84.981 130.518 89.173C118.848 94.7291 101.926 96.3594 93.8801 92.6997C89.824 90.8698 86.8318 88.1416 85.9009 85.3802C84.97 82.6853 86.1004 82.3526 88.4941 84.5817C92.4172 88.2414 98.9003 89.6721 106.713 88.5741C118.881 86.8774 129.853 81.4543 137.267 73.536C144.68 65.6177 146.941 56.4018 142.686 51.4113C137.566 45.4226 123.27 44.2582 108.209 48.6166C103.555 49.9806 99.266 51.6442 93.8801 54.2392C69.0118 66.2498 56.3782 80.3231 59.3038 92.8327C60.7002 98.7881 64.457 103.013 76.6252 112.329C78.6532 113.893 81.5789 116.388 83.1747 117.918L86.0672 120.713L88.1617 120.181C93.4479 118.883 101.427 118.617 106.248 119.615C116.488 121.745 123.802 129.696 123.27 138.08C123.037 141.374 122.04 143.537 119.646 145.732C117.684 147.562 115.124 148.827 114.194 148.494C113.329 148.161 113.628 147.695 115.59 146.198C118.283 144.169 119.48 142.106 119.613 139.311C119.945 133.123 114.692 127.667 106.381 125.637C102.69 124.739 96.6728 124.439 93.1154 124.939C89.2256 125.504 89.3918 125.338 90.1565 127.733C91.5196 132.158 91.4863 138.712 90.0567 143.936C86.9316 155.481 75.6943 164.264 64.1578 164.231C61.2654 164.197 57.9075 163.632 56.6441 162.966C55.3475 162.268 53.2198 159.54 52.4551 157.61C51.8899 156.146 51.7237 155.048 51.7237 152.42C51.6904 147.196 53.2198 143.47 57.1428 139.211C61.2986 134.72 70.2419 128.399 77.9218 124.573L79.5176 123.741L78.088 122.576C77.2901 121.944 73.7993 119.416 70.3084 116.987C57.3091 107.871 51.8567 102.781 48.4323 96.4259C45.1409 90.2709 45.2406 85.3469 48.8645 77.8611C55.0483 65.0521 70.5411 52.5092 91.2536 43.4597C106.148 36.972 117.551 34.6763 129.021 35.8075Z" fill="#F7F7F7"/>
<path d="M79.6174 130.328C69.0118 136.384 62.562 143.636 61.6311 150.49C61.3983 152.453 62.03 154.283 63.2934 155.115C63.9916 155.547 64.6897 155.647 66.5848 155.514C73.766 155.015 81.4459 147.629 83.4739 139.278C84.2386 136.117 83.8729 129.064 82.9087 128.731C82.7425 128.665 81.2464 129.397 79.6174 130.328Z" fill="#F7F7F7"/>
</svg>
