<svg width="32" height="30" viewBox="0 0 32 30" fill="none" xmlns="http://www.w3.org/2000/svg">
<path d="M25.3333 3.00041H16.6293C16.4231 3.00177 16.2193 2.95617 16.0333 2.86707L11.8253 0.755074C11.2699 0.478467 10.6579 0.334255 10.0373 0.33374H6.66667C4.89921 0.335857 3.20474 1.03892 1.95496 2.2887C0.705176 3.53848 0.00211714 5.23295 0 7.00041L0 23.0004C0.00211714 24.7679 0.705176 26.4623 1.95496 27.7121C3.20474 28.9619 4.89921 29.665 6.66667 29.6671H25.3333C27.1008 29.665 28.7953 28.9619 30.045 27.7121C31.2948 26.4623 31.9979 24.7679 32 23.0004V9.66707C31.9979 7.89961 31.2948 6.20515 30.045 4.95537C28.7953 3.70558 27.1008 3.00252 25.3333 3.00041V3.00041ZM6.66667 3.00041H10.0373C10.2435 2.99905 10.4474 3.04464 10.6333 3.13374L14.8413 5.23907C15.3963 5.51799 16.0083 5.66449 16.6293 5.66707H25.3333C26.1307 5.66837 26.9095 5.90797 27.5697 6.35509C28.23 6.80221 28.7415 7.43646 29.0387 8.17641L2.66667 8.32574V7.00041C2.66667 5.93954 3.08809 4.92213 3.83824 4.17198C4.58839 3.42183 5.6058 3.00041 6.66667 3.00041V3.00041ZM25.3333 27.0004H6.66667C5.6058 27.0004 4.58839 26.579 3.83824 25.8288C3.08809 25.0787 2.66667 24.0613 2.66667 23.0004V10.9924L29.3333 10.8417V23.0004C29.3333 24.0613 28.9119 25.0787 28.1618 25.8288C27.4116 26.579 26.3942 27.0004 25.3333 27.0004Z" fill="#32C267"/>
</svg>
