<svg width="19" height="24" viewBox="0 0 19 24" fill="none" xmlns="http://www.w3.org/2000/svg">
<path d="M12.9999 23.9998C11.3194 23.9985 9.65785 23.6449 8.12246 22.9618C6.58707 22.2787 5.21197 21.2812 4.08591 20.0338C2.95134 18.7849 2.09532 17.309 1.57465 15.7041C1.05399 14.0992 0.880568 12.4019 1.06591 10.7248C1.36471 8.1148 2.50331 5.67251 4.31027 3.76563C6.11724 1.85875 8.49477 0.590487 11.0849 0.151782C12.7593 -0.106843 14.4681 -0.0372166 16.1159 0.356782C16.5474 0.467641 16.9414 0.691786 17.2572 1.00602C17.573 1.32026 17.7991 1.71317 17.9121 2.14411C18.0251 2.57504 18.0208 3.02833 17.8998 3.45709C17.7789 3.88584 17.5455 4.27448 17.2239 4.58278C12.6639 8.74878 13.0599 15.2268 18.0309 18.9928C18.3824 19.2686 18.6535 19.6337 18.8161 20.0499C18.9786 20.4661 19.0267 20.9182 18.9552 21.3593C18.8837 21.8003 18.6954 22.2142 18.4097 22.5577C18.124 22.9013 17.7515 23.162 17.3309 23.3128C15.9327 23.7696 14.4708 24.0015 12.9999 23.9998V23.9998ZM13.0759 1.99978C12.5145 1.99843 11.9538 2.04089 11.3989 2.12678C9.24243 2.4915 7.26277 3.54683 5.75792 5.13391C4.25307 6.721 3.30447 8.75396 3.05491 10.9268C2.89891 12.3268 3.04268 13.744 3.47665 15.0842C3.91062 16.4244 4.62487 17.6569 5.57191 18.6998C6.95824 20.1795 8.74419 21.225 10.7131 21.7096C12.682 22.1942 14.7492 22.097 16.6639 21.4298C16.7464 21.3989 16.8193 21.3467 16.8752 21.2785C16.9311 21.2103 16.9679 21.1286 16.9821 21.0416C16.9962 20.9546 16.987 20.8654 16.9556 20.7831C16.9241 20.7008 16.8714 20.6282 16.8029 20.5728C10.8739 16.0948 10.4029 8.08678 15.8549 3.12378C15.9175 3.06569 15.9626 2.99131 15.9852 2.90899C16.0078 2.82667 16.007 2.73968 15.9829 2.65778C15.9621 2.57087 15.918 2.49129 15.8552 2.42766C15.7925 2.36403 15.7135 2.31877 15.6269 2.29678C14.7917 2.09531 13.9351 1.99558 13.0759 1.99978V1.99978Z" fill="#374957"/>
</svg>
