<svg width="32" height="32" viewBox="0 0 32 32" fill="none" xmlns="http://www.w3.org/2000/svg">
<circle cx="16" cy="16" r="16" fill="#F7F7F7"/>
<path d="M14.2812 12.0391V16.5234H16.5234C16.8307 16.5234 17.1198 16.4661 17.3906 16.3516C17.6615 16.2318 17.8984 16.0703 18.1016 15.8672C18.3047 15.6641 18.4635 15.4271 18.5781 15.1562C18.6979 14.8802 18.7578 14.5885 18.7578 14.2812C18.7578 13.974 18.6979 13.6849 18.5781 13.4141C18.4635 13.138 18.3047 12.8984 18.1016 12.6953C17.8984 12.4922 17.6615 12.3333 17.3906 12.2188C17.1198 12.099 16.8307 12.0391 16.5234 12.0391H14.2812ZM14.2812 21H12.0391V9.79688H16.5234C16.9349 9.79688 17.3307 9.85156 17.7109 9.96094C18.0911 10.0651 18.4453 10.2161 18.7734 10.4141C19.1068 10.6068 19.4089 10.8411 19.6797 11.1172C19.9557 11.388 20.1901 11.6901 20.3828 12.0234C20.5807 12.3568 20.7318 12.7135 20.8359 13.0938C20.9453 13.474 21 13.8698 21 14.2812C21 14.6667 20.9505 15.0417 20.8516 15.4062C20.7578 15.7708 20.6198 16.1172 20.4375 16.4453C20.2604 16.7734 20.0417 17.0755 19.7812 17.3516C19.5208 17.6276 19.2292 17.8672 18.9062 18.0703L20.1484 21H17.7656L16.7891 18.7422L14.2812 18.7578V21Z" fill="black"/>
<path d="M24.875 20.2031C24.875 20.3906 24.8411 20.5677 24.7734 20.7344C24.7057 20.8958 24.612 21.0365 24.4922 21.1562C24.3724 21.276 24.2318 21.3698 24.0703 21.4375C23.9089 21.5104 23.7344 21.5469 23.5469 21.5469C23.3646 21.5469 23.1901 21.5104 23.0234 21.4375C22.862 21.3698 22.7188 21.276 22.5938 21.1562C22.474 21.0365 22.3776 20.8958 22.3047 20.7344C22.237 20.5677 22.2031 20.3906 22.2031 20.2031C22.2031 20.0208 22.237 19.849 22.3047 19.6875C22.3776 19.526 22.474 19.3854 22.5938 19.2656C22.7188 19.1458 22.862 19.0521 23.0234 18.9844C23.1901 18.9115 23.3646 18.875 23.5469 18.875C23.7344 18.875 23.9089 18.9115 24.0703 18.9844C24.2318 19.0521 24.3724 19.1458 24.4922 19.2656C24.612 19.3854 24.7057 19.526 24.7734 19.6875C24.8411 19.849 24.875 20.0208 24.875 20.2031Z" fill="#32C267"/>
</svg>
